<svg xmlns="http://www.w3.org/2000/svg" width="160.838" height="177.926" viewBox="0 0 160.838 177.926">
  <g id="noun_Aux_cable_1086115" data-name="noun_Aux cable_1086115" transform="translate(-26.806 -13.4)">
    <path id="Path_19" data-name="Path 19" d="M46.157,13.4a21.737,21.737,0,0,0-21.78,21.78V49.922a5.026,5.026,0,1,0,0,10.052H34.429a5.026,5.026,0,0,0,0-10.052V35.181a11.728,11.728,0,1,1,23.456,0V169.211a21.78,21.78,0,0,0,43.56,0V35.181a11.728,11.728,0,1,1,23.456,0V169.546a21.78,21.78,0,0,0,43.56.166V157.147a5.026,5.026,0,0,0,0-10.052H158.409a5.026,5.026,0,1,0,0,10.052v12.4a11.728,11.728,0,0,1-23.456,0V35.181a21.78,21.78,0,0,0-43.56,0V169.211a11.728,11.728,0,0,1-23.456,0V35.181A21.737,21.737,0,0,0,46.157,13.4ZM163.435,26.427a4.97,4.97,0,0,0-3.518,1.381,4.562,4.562,0,0,0-1.508,3.518,4.821,4.821,0,0,0,1.508,3.518,4.857,4.857,0,0,0,7.037,0,4.562,4.562,0,0,0,1.508-3.518,4.821,4.821,0,0,0-1.508-3.518A4.97,4.97,0,0,0,163.435,26.427Zm0,13.4a4.97,4.97,0,0,0-3.518,1.381,4.562,4.562,0,0,0-1.508,3.518,4.821,4.821,0,0,0,1.508,3.518,5.027,5.027,0,0,0,8.545-3.518,4.821,4.821,0,0,0-1.508-3.518A4.97,4.97,0,0,0,163.435,39.83Zm0,13.442a4.936,4.936,0,0,0-5.026,5.026V70.027h-3.351a4.936,4.936,0,0,0-5.026,5.026v50.262a4.936,4.936,0,0,0,5.026,5.026h16.754a5.04,5.04,0,0,0,5.026-5.026V75.053a4.936,4.936,0,0,0-5.026-5.026h-3.351V58.3A4.936,4.936,0,0,0,163.435,53.273ZM21.026,63.325a5.026,5.026,0,1,0,0,10.052H37.78a5.026,5.026,0,1,0,0-10.052Zm0,13.4A4.936,4.936,0,0,0,16,81.754v50.262a4.936,4.936,0,0,0,5.026,5.026h3.351V148.77a5.026,5.026,0,1,0,10.052,0V137.042H37.78a4.936,4.936,0,0,0,5.026-5.026V81.754a4.936,4.936,0,0,0-5.026-5.026Zm134.032,56.963a5.026,5.026,0,0,0,0,10.052h16.754a5.026,5.026,0,1,0,0-10.052ZM29.4,157.275a4.966,4.966,0,0,0-3.518,1.382,4.56,4.56,0,0,0-1.509,3.517,4.83,4.83,0,0,0,1.509,3.522,4.865,4.865,0,0,0,7.035,0,4.571,4.571,0,0,0,1.509-3.522,4.819,4.819,0,0,0-1.509-3.517A4.966,4.966,0,0,0,29.4,157.275Zm0,13.4a4.97,4.97,0,0,0-3.518,1.382,4.859,4.859,0,0,0,0,7.038,4.865,4.865,0,0,0,7.035,0,4.571,4.571,0,0,0,1.509-3.522,4.819,4.819,0,0,0-1.509-3.517A4.97,4.97,0,0,0,29.4,170.677Z" transform="translate(10.806)"/>
  </g>
</svg>
