<svg xmlns="http://www.w3.org/2000/svg" width="266.028" height="266.171" viewBox="0 0 266.028 266.171">
  <g id="noun_Package_1123003_1_" data-name="noun_Package_1123003 (1)" transform="translate(-2.799 -1.026)">
    <path id="Path_16" data-name="Path 16" d="M175.556,129.335V48.313a6.765,6.765,0,0,0-3.369-5.842L101.979,1.933a6.765,6.765,0,0,0-6.765,0L25.059,42.444a6.765,6.765,0,0,0-3.369,5.842v81.049a6.765,6.765,0,0,0,3.369,5.842L95.24,175.715a6.765,6.765,0,0,0,6.765,0l70.154-40.538a6.766,6.766,0,0,0,3.4-5.842ZM98.61,15.6l56.65,32.6L134.61,60.132l-56.65-32.6Zm0,65.426-56.65-32.6,22.5-12.987,56.65,32.6ZM35.194,60l56.65,32.6v65.535l-56.65-32.6Zm70.181,98.14V92.709l56.65-32.6v65.318Z" transform="translate(37.243)"/>
    <path id="Path_17" data-name="Path 17" d="M169.736,37.034a20.622,20.622,0,0,0-34.017,15.7V93.711a20.7,20.7,0,0,0-4.4-.978,20.459,20.459,0,0,0-16.683,5.9L64.369,148.894A37.169,37.169,0,0,0,53.5,175.358v31.708a6.793,6.793,0,1,0,13.585,0V175.331a23.747,23.747,0,0,1,6.793-16.9l50.265-50.265a7.037,7.037,0,0,1,9.944,9.944l-29.154,29.154a6.765,6.765,0,0,0,9.564,9.564l29.127-29.154a20.459,20.459,0,0,0,6.032-15.052v-.353l-.435-59.558a7.064,7.064,0,0,1,14.129,0v76.077a28.746,28.746,0,0,1-8.477,20.459L114.634,189.84a6.765,6.765,0,0,0-1.983,4.782v12.444a6.793,6.793,0,1,0,13.585,0v-9.646l38.31-38.473a42.168,42.168,0,0,0,12.417-29.887V52.983A20.6,20.6,0,0,0,169.736,37.034Z" transform="translate(91.862 53.339)"/>
    <path id="Path_18" data-name="Path 18" d="M51.975,197.4v9.646a6.793,6.793,0,1,0,13.585,0V194.606a6.765,6.765,0,0,0-2.119-4.782L23.065,149.368a28.746,28.746,0,0,1-8.532-20.459V52.831a7.064,7.064,0,1,1,14.129,0L28.418,112.8h0a20.459,20.459,0,0,0,6.059,14.835l29.1,29.181a6.765,6.765,0,1,0,9.564-9.564L44.014,118.094a7.037,7.037,0,0,1,9.944-9.944L104.2,158.415a23.747,23.747,0,0,1,7.01,16.9V207.05a6.793,6.793,0,1,0,13.585,0V175.315a37.169,37.169,0,0,0-10.868-26.464L63.441,98.613a20.432,20.432,0,0,0-16.764-5.9,20.7,20.7,0,0,0-4.4.978V52.722a20.622,20.622,0,1,0-41.245,0V128.8a42.171,42.171,0,0,0,12.42,29.89Z" transform="translate(1.769 53.355)"/>
  </g>
</svg>
